<?xml version="1.0" standalone="no"?>
<!DOCTYPE svg PUBLIC "-//W3C//DTD SVG 20010904//EN"
 "http://www.w3.org/TR/2001/REC-SVG-20010904/DTD/svg10.dtd">
<svg version="1.0" xmlns="http://www.w3.org/2000/svg"
 width="700.000000pt" height="700.000000pt" viewBox="0 0 700.000000 700.000000"
 preserveAspectRatio="xMidYMid meet">
<metadata>
Created by potrace 1.14, written by Peter Selinger 2001-2017
</metadata>
<g transform="translate(0.000000,700.000000) scale(0.100000,-0.100000)"
fill="#000000" stroke="none">
<path d="M2705 6858 c-126 -71 -259 -146 -295 -166 -36 -19 -69 -38 -75 -42
-5 -4 -37 -22 -70 -40 -33 -18 -76 -42 -95 -53 -73 -42 -249 -141 -335 -189
-49 -28 -119 -67 -155 -88 -65 -38 -426 -241 -510 -288 -25 -14 -97 -54 -160
-90 -63 -36 -135 -76 -160 -90 -25 -14 -74 -42 -110 -62 -36 -20 -85 -48 -110
-62 -43 -24 -392 -222 -455 -258 -16 -9 -55 -31 -85 -48 l-55 -31 0 -1675 c0
-921 2 -1676 5 -1678 5 -4 32 -20 115 -68 17 -10 83 -49 149 -89 65 -39 120
-71 122 -71 3 0 39 -22 82 -48 42 -27 82 -51 87 -53 6 -2 75 -43 155 -90 80
-48 161 -95 180 -106 19 -11 145 -85 280 -165 135 -80 261 -155 280 -165 19
-11 115 -68 214 -127 98 -58 179 -106 181 -106 1 0 56 -32 121 -72 66 -39 133
-79 149 -88 17 -9 127 -75 245 -145 118 -70 240 -141 270 -158 30 -16 62 -35
70 -42 8 -6 57 -36 107 -65 l93 -52 92 52 c96 55 852 482 1063 600 66 37 138
78 160 90 22 13 90 51 150 85 111 63 155 88 223 126 20 12 55 32 77 44 22 11
76 42 120 67 44 25 96 54 115 65 19 11 181 102 360 203 179 101 338 191 353
199 16 9 36 21 45 26 10 6 46 26 82 47 l65 36 0 1676 0 1676 -90 54 c-113 67
-974 574 -1275 751 -124 73 -283 167 -355 210 -71 43 -146 86 -165 97 -36 21
-242 142 -558 330 -101 59 -187 108 -192 108 -6 0 -10 5 -10 10 0 6 -4 10 -9
10 -5 0 -62 32 -127 70 -65 39 -120 70 -123 70 -3 -1 -109 -60 -236 -132z"/>
</g>
</svg>
